<svg width="294.2099609375px" height="111.41796875px" xmlns="http://www.w3.org/2000/svg" viewBox="102.89501953125 19.291015625 294.2099609375 111.41796875" style="background: rgba(0, 0, 0, 0);" preserveAspectRatio="xMidYMid"><defs><filter id="editing-extrusion" x="-100%" y="-100%" width="300%" height="300%"><feFlood result="color1" flood-color="#1651b2"></feFlood><feConvolveMatrix order="5,5" divisor="1" kernelMatrix="1 0 0 0 0 0 1 0 0 0 0 0 1 0 0 0 0 0 1 0 0 0 0 0 1" in="SourceAlpha" result="extrude"></feConvolveMatrix><feComposite in="color1" in2="extrude" result="comp-extrude" operator="in"></feComposite><feOffset dx="2.5" dy="2.5" in="comp-extrude" result="offset-extrude"></feOffset><feMerge><feMergeNode in="offset-extrude"></feMergeNode><feMergeNode in="SourceGraphic"></feMergeNode></feMerge></filter></defs><g filter="url(#editing-extrusion)"><g transform="translate(150.37500047683716, 96.27999877929688)"><path d="M17.14-41.38L17.14-7.28L17.14-7.28Q17.14-3.30 22.01-3.30L22.01-3.30L22.01-3.30Q24.30-3.30 26.94-4.31L26.94-4.31L28.17-0.90L28.17-0.90Q25.37 0.62 21.17 0.62L21.17 0.62L21.17 0.62Q17.19 0.62 14.81-1.57L14.81-1.57L14.81-1.57Q12.43-3.75 12.43-7.50L12.43-7.50L12.43-37.63L3.36-37.63L3.36-41.38L17.14-41.38ZM50.46-30.13L50.46-30.13Q56.56-30.13 59.84-26.01L59.84-26.01L59.84-26.01Q63.11-21.90 63.11-14.78L63.11-14.78L63.11-14.78Q63.11-7.84 59.78-3.61L59.78-3.61L59.78-3.61Q56.45 0.62 50.40 0.62L50.40 0.62L50.40 0.62Q44.30 0.62 40.99-3.50L40.99-3.50L40.99-3.50Q37.69-7.62 37.69-14.73L37.69-14.73L37.69-14.73Q37.69-21.73 41.02-25.93L41.02-25.93L41.02-25.93Q44.35-30.13 50.46-30.13L50.46-30.13ZM50.46-26.26L50.46-26.26Q46.59-26.26 44.69-23.41L44.69-23.41L44.69-23.41Q42.78-20.55 42.78-14.73L42.78-14.73L42.78-14.73Q42.78-8.90 44.66-6.08L44.66-6.08L44.66-6.08Q46.54-3.25 50.40-3.25L50.40-3.25L50.40-3.25Q54.26-3.25 56.14-6.08L56.14-6.08L56.14-6.08Q58.02-8.90 58.02-14.78L58.02-14.78L58.02-14.78Q58.02-20.61 56.14-23.44L56.14-23.44L56.14-23.44Q54.26-26.26 50.46-26.26L50.46-26.26ZM77.50-41.83L77.50-25.42L77.50-25.42Q79.24-27.66 81.76-28.90L81.76-28.90L81.76-28.90Q84.28-30.13 86.97-30.13L86.97-30.13L86.97-30.13Q95.26-30.13 95.26-21.39L95.26-21.39L95.26 0L90.55 0L90.55-21.34L90.55-21.34Q90.55-23.97 89.32-25.17L89.32-25.17L89.32-25.17Q88.09-26.38 85.40-26.38L85.40-26.38L85.40-26.38Q83.10-26.38 80.98-24.92L80.98-24.92L80.98-24.92Q78.85-23.46 77.50-21.50L77.50-21.50L77.50 0L72.80 0L72.80-41.33L77.50-41.83ZM112.62-4.31L112.62-4.31Q112.62-6.38 114.04-7.81L114.04-7.81L114.04-7.81Q115.47-9.24 117.54-9.24L117.54-9.24L117.54-9.24Q119.67-9.24 121.07-7.81L121.07-7.81L121.07-7.81Q122.47-6.38 122.47-4.31L122.47-4.31L122.47-4.31Q122.47-2.18 121.07-0.78L121.07-0.78L121.07-0.78Q119.67 0.62 117.54 0.62L117.54 0.62L117.54 0.62Q115.47 0.62 114.04-0.81L114.04-0.81L114.04-0.81Q112.62-2.24 112.62-4.31L112.62-4.31ZM145.04-41.94L145.04 0L140.34 0L140.34-41.38L145.04-41.94ZM164.70-29.51L151.48-16.18L166.26 0L160.05 0L145.54-16.13L158.65-29.51L164.70-29.51ZM179.48-4.03L195.89-4.03L195.33 0L173.71 0L173.71-3.58L190.06-25.37L175-25.37L175-29.51L195.72-29.51L195.72-25.82L179.48-4.03Z" fill="#3b82f6"></path></g></g><style>text {
  font-size: 64px;
  font-family: Arial Black;
  dominant-baseline: central;
  text-anchor: middle;
}</style></svg>